<svg id="Capa_1" enable-background="new 0 0 512 512" height="512" viewBox="0 0 512 512" width="512" xmlns="http://www.w3.org/2000/svg" xmlns:xlink="http://www.w3.org/1999/xlink"><g><g><path d="m196 226c-8.284 0-15 6.716-15 15v30c0 8.284 6.716 15 15 15s15-6.716 15-15v-30c0-8.284-6.716-15-15-15zm120 0c-8.284 0-15 6.716-15 15v30c0 8.284 6.716 15 15 15s15-6.716 15-15v-30c0-8.284-6.716-15-15-15zm120-226h-360c-24.813 0-45 20.187-45 45v422c0 24.813 20.187 45 45 45h360c24.813 0 45-20.187 45-45v-422c0-24.813-20.187-45-45-45zm15 467c0 8.271-6.729 15-15 15h-360c-8.271 0-15-6.729-15-15v-422c0-8.271 6.729-15 15-15h360c8.271 0 15 6.729 15 15zm-195-376c-90.981 0-165 74.019-165 165s74.019 165 165 165 165-74.019 165-165-74.019-165-165-165zm15 299.162v-14.162c0-8.284-6.716-15-15-15s-15 6.716-15 15v14.162c-67.406-7.486-120-64.793-120-134.162s52.594-126.676 120-134.162v14.162c0 8.284 6.716 15 15 15s15-6.716 15-15v-14.162c67.406 7.486 120 64.793 120 134.162s-52.594 126.676-120 134.162z" fill="ffffff"/></g></g></svg>