<?xml version="1.0" encoding="iso-8859-1"?>
<!-- Generator: Adobe Illustrator 19.0.0, SVG Export Plug-In . SVG Version: 6.00 Build 0)  -->
<svg version="1.1" id="Layer_1" xmlns="http://www.w3.org/2000/svg" xmlns:xlink="http://www.w3.org/1999/xlink" x="0px" y="0px"
	 viewBox="0 0 512 512" style="enable-background:new 0 0 512 512;" xml:space="preserve">
<g>
	<path style="fill:#2D527C;" d="M256,512c-8.078,0-14.629-6.551-14.629-14.629V14.629C241.371,6.551,247.922,0,256,0
		s14.629,6.551,14.629,14.629v482.743C270.629,505.449,264.078,512,256,512z"/>
	<path style="fill:#2D527C;" d="M497.371,270.629H14.629C6.551,270.629,0,264.078,0,256s6.551-14.629,14.629-14.629h482.743
		c8.078,0,14.629,6.551,14.629,14.629S505.449,270.629,497.371,270.629z"/>
	<path style="fill:#2D527C;" d="M426.676,441.305c-3.745,0-7.487-1.429-10.344-4.285L74.98,95.668
		c-5.712-5.712-5.712-14.975,0-20.689c5.714-5.711,14.974-5.711,20.689,0l341.352,341.352c5.712,5.712,5.712,14.975,0,20.689
		C434.163,439.875,430.419,441.305,426.676,441.305z"/>
	<path style="fill:#2D527C;" d="M256,270.629c-8.078,0-14.629-6.551-14.629-14.629V14.629C241.371,6.551,247.922,0,256,0
		s14.629,6.551,14.629,14.629V256C270.629,264.078,264.078,270.629,256,270.629z"/>
</g>
<g>
	<path style="fill:#CEE8FA;" d="M85.324,85.324l72.408,72.408c25.149-25.149,59.891-40.704,98.267-40.704v-102.4
		C189.348,14.629,129.005,41.645,85.324,85.324z"/>
	<path style="fill:#CEE8FA;" d="M426.676,85.324l-72.407,72.407c25.148,25.151,40.703,59.894,40.703,98.269h102.4
		C497.371,189.348,470.355,129.005,426.676,85.324z"/>
	<path style="fill:#CEE8FA;" d="M14.629,256c0,66.652,27.016,126.995,70.695,170.676l72.408-72.409
		c-25.149-25.149-40.704-59.892-40.704-98.267H14.629z"/>
	<path style="fill:#CEE8FA;" d="M354.267,354.267c-25.149,25.149-59.891,40.704-98.267,40.704v102.4
		c66.652,0,126.995-27.016,170.676-70.695L354.267,354.267z"/>
</g>
<path style="fill:#2D527C;" d="M437.02,74.98c-0.347-0.347-0.711-0.674-1.087-0.982c-0.244-0.2-0.502-0.377-0.756-0.56
	c-0.135-0.097-0.262-0.202-0.399-0.294c-0.328-0.218-0.664-0.411-1.005-0.601c-0.075-0.041-0.146-0.091-0.221-0.13
	c-0.354-0.189-0.717-0.354-1.083-0.512c-0.072-0.031-0.139-0.069-0.211-0.098c-0.347-0.143-0.701-0.263-1.056-0.379
	c-0.099-0.032-0.195-0.073-0.296-0.104c-0.325-0.098-0.654-0.173-0.983-0.247c-0.138-0.031-0.271-0.073-0.41-0.099
	c-0.301-0.06-0.606-0.095-0.91-0.136c-0.17-0.022-0.338-0.057-0.509-0.073c-0.338-0.032-0.677-0.041-1.015-0.05
	c-0.136-0.003-0.269-0.02-0.405-0.02s-0.269,0.016-0.405,0.02c-0.339,0.009-0.677,0.018-1.015,0.05
	c-0.171,0.016-0.338,0.051-0.508,0.073c-0.304,0.041-0.609,0.076-0.91,0.136c-0.137,0.028-0.271,0.069-0.407,0.099
	c-0.331,0.075-0.66,0.151-0.986,0.247c-0.099,0.031-0.196,0.07-0.296,0.104c-0.355,0.116-0.709,0.236-1.056,0.379
	c-0.072,0.029-0.139,0.067-0.211,0.098c-0.366,0.158-0.728,0.323-1.082,0.512c-0.076,0.039-0.146,0.089-0.221,0.13
	c-0.341,0.189-0.679,0.383-1.006,0.601c-0.135,0.089-0.259,0.193-0.391,0.287c-0.257,0.184-0.516,0.363-0.765,0.566
	c-0.377,0.307-0.74,0.635-1.087,0.982l-62.55,62.55c-23.723-19.649-52.48-31.561-83.15-34.44v-88.46C270.629,6.551,264.078,0,256,0
	C187.622,0,123.335,26.628,74.98,74.98C26.628,123.335,0,187.622,0,256s26.628,132.665,74.98,181.02
	C123.335,485.372,187.622,512,256,512s132.665-26.628,181.02-74.98C485.372,388.665,512,324.378,512,256
	S485.372,123.335,437.02,74.98z M85.65,106.338l51.882,51.882c-19.652,23.723-31.564,52.48-34.443,83.152H29.718
	C32.894,191.16,52.391,144.09,85.65,106.338z M158.329,179.019l62.353,62.353h-88.18
	C135.164,218.514,144.05,197.063,158.329,179.019z M29.718,270.629h73.364c2.879,30.673,14.791,59.433,34.444,83.156L85.65,405.662
	C52.391,367.91,32.894,320.84,29.718,270.629z M241.371,482.282c-50.211-3.176-97.281-22.673-135.033-55.931l51.882-51.882
	c23.723,19.652,52.48,31.563,83.152,34.442V482.282z M241.371,379.497c-22.856-2.661-44.295-11.561-62.34-25.841l28.798-28.798
	c5.712-5.712,5.712-14.975,0-20.689c-5.714-5.711-14.974-5.711-20.689,0l-28.786,28.786c-14.275-18.04-23.154-39.475-25.816-62.326
	h108.834V379.497z M241.371,220.682l-62.326-62.327c18.04-14.276,39.475-23.156,62.326-25.816V220.682z M241.371,103.083
	c-30.673,2.879-59.433,14.791-83.156,34.444L106.338,85.65c37.752-33.26,84.822-52.756,135.033-55.932V103.083z M482.282,241.371
	h-73.364c-2.879-30.672-14.791-59.432-34.443-83.156l51.876-51.876C459.609,144.09,479.106,191.16,482.282,241.371z
	 M270.629,132.503c22.856,2.661,44.295,11.561,62.34,25.84l-14.171,14.171c-5.712,5.712-5.712,14.975,0,20.689
	c2.858,2.854,6.6,4.283,10.345,4.283s7.487-1.429,10.344-4.285l14.168-14.168c14.267,18.043,23.144,39.485,25.806,62.338H270.629
	V132.503z M379.497,270.629c-2.661,22.857-11.548,44.308-25.827,62.353l-62.353-62.353H379.497z M270.629,291.318l62.327,62.326
	c-18.04,14.276-39.475,23.156-62.327,25.816V291.318z M270.629,482.282v-73.364c30.673-2.879,59.433-14.791,83.156-34.444
	l51.877,51.877C367.91,459.609,320.84,479.106,270.629,482.282z M426.35,405.662l-51.882-51.882
	c19.652-23.723,31.563-52.48,34.442-83.152h73.371C479.106,320.84,459.609,367.91,426.35,405.662z"/>
<g>
</g>
<g>
</g>
<g>
</g>
<g>
</g>
<g>
</g>
<g>
</g>
<g>
</g>
<g>
</g>
<g>
</g>
<g>
</g>
<g>
</g>
<g>
</g>
<g>
</g>
<g>
</g>
<g>
</g>
</svg>
